<svg width="64" height="19" viewBox="0 0 64 19" fill="none" xmlns="http://www.w3.org/2000/svg">
<path d="M3.78906 8.92969H4.98438C6.10156 8.92969 6.9375 8.71094 7.49219 8.27344C8.04688 7.82812 8.32422 7.18359 8.32422 6.33984C8.32422 5.48828 8.08984 4.85938 7.62109 4.45312C7.16016 4.04688 6.43359 3.84375 5.44141 3.84375H3.78906V8.92969ZM11.9922 6.21094C11.9922 8.05469 11.4141 9.46484 10.2578 10.4414C9.10938 11.418 7.47266 11.9062 5.34766 11.9062H3.78906V18H0.15625V0.867188H5.62891C7.70703 0.867188 9.28516 1.31641 10.3633 2.21484C11.4492 3.10547 11.9922 4.4375 11.9922 6.21094ZM29.4119 0.867188V11.9531C29.4119 13.2188 29.1267 14.3281 28.5564 15.2812C27.9939 16.2344 27.1775 16.9648 26.1072 17.4727C25.0369 17.9805 23.7712 18.2344 22.3103 18.2344C20.1072 18.2344 18.3962 17.6719 17.1775 16.5469C15.9587 15.4141 15.3494 13.8672 15.3494 11.9062V0.867188H18.9705V11.3555C18.9705 12.6758 19.2361 13.6445 19.7673 14.2617C20.2986 14.8789 21.1775 15.1875 22.4041 15.1875C23.5916 15.1875 24.4509 14.8789 24.9822 14.2617C25.5212 13.6367 25.7908 12.6602 25.7908 11.332V0.867188H29.4119ZM49.0464 18H44.4292L36.9761 5.03906H36.8706C37.0191 7.32812 37.0933 8.96094 37.0933 9.9375V18H33.8472V0.867188H38.4292L45.8706 13.6992H45.9527C45.8355 11.4727 45.7769 9.89844 45.7769 8.97656V0.867188H49.0464V18ZM63.4778 18H53.6106V0.867188H63.4778V3.84375H57.2434V7.60547H63.0442V10.582H57.2434V15H63.4778V18Z" fill="white"/>
</svg>
